
<svg xml:space="preserve" style="enable-background:new 0 0 80 80;" viewBox="0 0 80 80" height="80px" width="80px" y="0px" x="0px" id="Layer_1" version="1.1" xmlns:xlink="http://www.w3.org/1999/xlink" xmlns="http://www.w3.org/2000/svg"> <style type="text/css"> .st0{fill:#D02053;} .st1{fill:#E2126E;} .st2{fill:#9D1638;} .st3{fill:#231F20;} </style> <g> <g> <g> <g> <polygon points="51.6,39 53.3,47.1 65,41.2" class="st0"></polygon> <polygon points="54.9,27.1 51.6,39.1 65,41.2" class="st1"></polygon> <polygon points="40.6,25.3 54.5,27 51.2,38.9" class="st0"></polygon> <polygon points="40.5,27.6 42,27.6 46.4,33.2" class="st2"></polygon> <polygon points="65.4,41.1 61.3,35.5 67.9,34.3" class="st0"></polygon> <polygon points="64.7,42.7 65.1,41.5 54.9,46.7" class="st1"></polygon> <polygon points="51.3,39.4 53.4,49 47.1,54.1" class="st2"></polygon> <polygon points="67.2,37.2 71,37.1 68.3,34.4" class="st1"></polygon> <path d="M8.2,35.5c0.2,0,0.4,0,0.6,0c0.2,0,0.3,0,0.6,0v6c0.6-1,1.3-1.7,2.4-1.7c2,0,2.8,1.9,2.8,3.7 c0,2.1-1.1,4.2-3.1,4.2c-1.1,0-1.7-0.7-2-1.1c-0.3,0.3-0.6,0.6-1,1H8.2V35.5z M9.3,44.2c0,1.7,0.7,3,1.9,3 c1.6,0,2.1-2.1,2.1-3.6c0-1.7-0.6-3.1-1.9-3.1C9.8,40.4,9.3,42.3,9.3,44.2" class="st1"></path> <path d="M19.7,39.3l-1.2,1.5c1.1,1.6,2.3,3.2,3.4,4.9l1.1,1.8v0.1c-0.3,0-0.5,0-0.8,0c-0.3,0-0.5,0-0.8,0 c-0.3-0.6-0.6-1.1-1-1.6l-3-4.5c-0.1-0.1-0.2-0.1-0.2-0.1v6.2c-0.2,0-0.4,0-0.6,0c-0.2,0-0.4,0-0.6,0V35.5 c0.2,0,0.4,0.1,0.6,0.1c0.2,0,0.4,0,0.6-0.1v5.5c0,0.1,0.2,0,0.3-0.1c0.2-0.2,0.5-0.6,0.7-0.9l3.4-4.5c0.2,0,0.4,0.1,0.6,0.1 c0.2,0,0.3,0,0.5-0.1L19.7,39.3z" class="st3"></path> <path d="M28.9,46.2c0,0.6,0,1,0.8,0.7v0.4c-0.1,0.1-0.3,0.1-0.4,0.2c-0.7,0.1-1.3,0-1.4-0.9l-0.1,0.1 c-0.6,0.7-1.2,1-2.1,1c-1,0-1.8-0.8-1.8-2c0-1.8,1.3-2.1,2.6-2.3c1.1-0.2,1.5-0.3,1.5-1.1c0-1.2-0.6-1.9-1.6-1.9 c-1,0-1.6,0.8-1.7,1.1h-0.2v-0.9c0.7-0.5,1.4-0.9,2.2-0.9c1.5,0,2.3,0.9,2.3,2.7V46.2z M27.8,43.6l-0.5,0.1 c-0.9,0.2-2.4,0.4-2.4,1.8c0,1,0.5,1.5,1.4,1.5c0.4,0,0.9-0.3,1.1-0.6c0.1-0.1,0.4-0.4,0.4-0.5V43.6z" class="st3"></path> <path d="M31.4,46c0.3,0.6,0.9,1.2,1.6,1.2c0.7,0,1.4-0.6,1.4-1.5c0-2.2-3.3-0.8-3.3-3.6c0-1.5,1-2.4,2.3-2.4 c0.7,0,1.3,0.2,1.6,0.4c-0.1,0.4-0.2,0.8-0.3,1.1h-0.1c-0.2-0.5-0.7-1.1-1.2-1.1c-0.7,0-1.3,0.5-1.3,1.3c0,2.1,3.3,1,3.3,3.5 c0,1.7-1.3,2.5-2.6,2.5c-0.6,0-1.3-0.2-1.7-0.5c0.1-0.4,0.2-0.8,0.3-1.2H31.4z" class="st3"></path> <path d="M37.2,35.5c0.2,0,0.4,0,0.6,0c0.2,0,0.3,0,0.6,0v5.9c0.5-1,1.3-1.6,2.2-1.6c1.6,0,2.2,1.1,2.2,3.1v4.7 c-0.2,0-0.4,0-0.6,0c-0.2,0-0.4,0-0.6,0v-4.3c0-1.8-0.4-2.7-1.5-2.7c-1.3,0-1.8,0.9-1.8,2.6v4.4c-0.2,0-0.4,0-0.6,0 c-0.2,0-0.4,0-0.6,0V35.5z" class="st3"></path> </g> </g> </g> </g> </svg> 