<?xml version="1.0" encoding="UTF-8"?>
<svg id="Layer_1" data-name="Layer 1" xmlns="http://www.w3.org/2000/svg" viewBox="0 0 205.14 62.52">
  <defs>
    <style>
      .cls-1 {
        fill: #fff;
      }

      .cls-2 {
        fill: #5f656a;
      }
    </style>
  </defs>
  <path class="cls-1" d="m202.63,18.31v33.36c0,.39-.01.79-.01,1.18-.01,1.31-.12,2.62-.78,3.8-1.18,2.08-2.97,3.3-5.39,3.34-1.07.02-2.13.03-3.19.04H9.05c-1.98-.04-3.67-.67-4.98-2.19-1-1.14-1.53-2.49-1.54-4.01-.01-6.97-.01-13.93-.01-20.9,0-7.84.01-15.69,0-23.54,0-1.55.3-3,1.22-4.26,1.11-1.53,2.6-2.45,4.52-2.56,1.22-.07,2.45-.08,3.67-.08,61.01,0,122.02,0,183.03.01,1.01,0,2.04.05,3.01.26,2.35.51,4.48,2.96,4.58,5.36.1,2.57.04,5.15.05,7.72.01.82.04,1.65.04,2.47Z"/>
  <path class="cls-2" d="m203.74,45.21c0-12.12.03-24.25,0-36.37-.01-2.57-1.22-4.64-3.3-6.16-1.54-1.11-3.31-1.36-5.18-1.36-37.79.01-75.58.01-113.37.01H8.88c-2.93,0-5.82,1.98-6.97,4.75-.5,1.2-.53,2.46-.53,3.72.01,9.5,0,19,.01,28.49,0,5.23-.04,10.47.03,15.7.03,2.57,1.33,4.53,3.43,5.96,1.47.99,3.12,1.26,4.88,1.26,30.95-.02,61.89-.02,92.84-.02.4.01.8.01,1.2.01,30.82-.01,61.64-.01,92.46-.01.51,0,1.03-.03,1.52-.15,3.68-.84,6.08-4.08,6.01-7.64-.05-2.73-.02-5.46-.02-8.19Zm-1.08,6.47c0,.39-.01.79-.01,1.18-.01,1.31-.12,2.62-.78,3.8-1.18,2.08-2.97,3.3-5.39,3.34-1.07.02-2.13.03-3.19.04-2.89.02-5.77,0-8.65,0H55.94c-15.53,0-31.07,0-46.6.01-.09,0-.18,0-.26-.01-1.98-.04-3.67-.67-4.98-2.19-1-1.14-1.53-2.49-1.54-4.01-.01-6.97-.01-13.93-.01-20.9,0-7.84.01-15.69,0-23.54,0-1.55.3-3,1.22-4.26,1.11-1.53,2.6-2.45,4.52-2.56,1.22-.07,2.45-.08,3.67-.08,61.01,0,122.02,0,183.03.01,1.01,0,2.04.05,3.01.26,2.35.51,4.48,2.96,4.58,5.36.1,2.57.04,5.15.05,7.72.01.82.04,1.65.04,2.47v33.36Z"/>
  <g>
    <path class="cls-2" d="m16.02,32.97c-.12-2.75.54-5.3,1.98-7.66,2.55-4.17,7.64-5.76,11.77-3.99.62.27,1.28.47,1.92.7.92.32,1.83.3,2.73-.07.71-.29,1.43-.58,2.15-.85,3.51-1.34,6.79-.83,9.81,1.34.66.47,1.16,1.16,1.74,1.73.29.29.16.45-.09.69-.86.8-1.79,1.56-2.52,2.47-1.35,1.72-1.74,3.72-1.59,5.9.15,2.13,1.04,3.9,2.43,5.42.7.76,1.63,1.33,2.5,1.92.35.24.39.43.26.78-.95,2.59-2.27,4.97-4.04,7.09-.57.68-1.16,1.36-1.83,1.95-1.67,1.46-3.57,1.54-5.59.84-1.04-.36-2.09-.75-3.17-.97-1.81-.36-3.5.2-5.16.9-1.06.44-2.15.84-3.33.59-1.08-.23-1.99-.8-2.78-1.55-2.18-2.06-3.71-4.57-4.94-7.27-1.19-2.62-1.93-5.38-2.24-8.24-.06-.56,0-1.14,0-1.71Z"/>
    <path class="cls-2" d="m40.85,11.72c-.02,3.25-2.6,7.3-6.24,8.17-.55.13-1.13.16-1.7.2-.33.02-.47-.17-.44-.51.16-2.16.77-4.18,2.24-5.78,1.49-1.62,3.36-2.7,5.58-3.08.41-.07.62.08.56.52-.02.16,0,.32,0,.48Z"/>
  </g>
  <path class="cls-2" d="m133.2,32.59c-.1-.13-.22-.24-.34-.35.03.03.17.14.34.35Z"/>
  <path class="cls-2" d="m144.48,34.13v-2.78s.01.1.01.16c-.01.88.02,1.75-.01,2.62Z"/>
  <path class="cls-2" d="m147.42,35.02v1.51c0-.5-.01-1.01,0-1.51Z"/>
  <path class="cls-2" d="m136.98,32.83c-.18-.59-.43-1.13-.77-1.61h0c.37.45.61,1.04.77,1.61Z"/>
  <g>
    <g>
      <path class="cls-2" d="m60.58,9.64h4.07c3.16,0,5.28,2.14,5.28,5.46s-2.07,5.7-5.34,5.7h-4.01v-11.16Zm1.66,9.77h2.24c2.53,0,3.73-1.83,3.73-4.28,0-2.13-1.09-4.1-3.72-4.1h-2.25v8.38Z"/>
      <path class="cls-2" d="m79.04,16.69c0,2.38-1.38,4.3-3.89,4.3-2.38,0-3.81-1.81-3.81-4.27s1.42-4.3,3.91-4.3c2.3,0,3.8,1.7,3.8,4.27Zm-6.09.02c0,1.75.85,2.99,2.25,2.99s2.22-1.18,2.22-2.98-.8-2.99-2.25-2.99-2.22,1.15-2.22,2.99Z"/>
      <path class="cls-2" d="m81.6,12.62c.96,3.73,1.51,5.86,1.65,6.73h.02c.15-.79.66-2.68,1.79-6.73h1.53c1.21,4.51,1.57,5.83,1.7,6.59h.02c.2-.87.51-2.1,1.72-6.59h1.59l-2.5,8.18h-1.7c-.77-3-1.48-5.55-1.66-6.47h-.02c-.15.92-.82,3.28-1.7,6.47h-1.75l-2.36-8.18h1.67Z"/>
      <path class="cls-2" d="m92.87,14.68c0-.71,0-1.43-.02-2.06h1.53c.04.24.06,1.04.06,1.29.32-.67.98-1.48,2.54-1.48s2.73.97,2.73,3.12v5.25h-1.58v-5.06c0-1.17-.45-1.97-1.65-1.97-1.43,0-2.04,1.05-2.04,2.66v4.38h-1.58v-6.12Z"/>
      <path class="cls-2" d="m102.04,20.8v-11.78h1.58v11.78h-1.58Z"/>
      <path class="cls-2" d="m113.1,16.69c0,2.38-1.38,4.3-3.89,4.3-2.38,0-3.81-1.81-3.81-4.27s1.42-4.3,3.91-4.3c2.3,0,3.8,1.7,3.8,4.27Zm-6.09.02c0,1.75.85,2.99,2.25,2.99s2.22-1.18,2.22-2.98-.8-2.99-2.25-2.99-2.22,1.15-2.22,2.99Z"/>
      <path class="cls-2" d="m121.08,18.95c0,.75.06,1.62.11,1.85h-1.51c-.06-.18-.11-.58-.13-1.02-.29.53-.92,1.21-2.48,1.21-1.94,0-2.76-1.26-2.76-2.51,0-1.83,1.45-2.67,3.87-2.67h1.35v-.66c0-.69-.23-1.51-1.66-1.51-1.29,0-1.51.62-1.65,1.25h-1.52c.11-1.19.85-2.47,3.23-2.46,2.04,0,3.16.83,3.16,2.71v3.82Zm-1.54-2.09h-1.25c-1.58,0-2.38.44-2.38,1.53,0,.8.54,1.4,1.51,1.4,1.87,0,2.11-1.26,2.11-2.67v-.25Z"/>
      <path class="cls-2" d="m130.36,9.01v9.48c0,.76,0,1.52.02,2.3h-1.52c-.04-.22-.07-.81-.08-1.1-.4.81-1.21,1.29-2.52,1.29-2.1,0-3.39-1.7-3.39-4.2s1.4-4.37,3.67-4.37c1.39,0,2.04.55,2.25.99v-4.4h1.58Zm-5.86,7.73c0,1.9.88,2.93,2.13,2.93,1.84,0,2.22-1.39,2.22-3.06s-.34-2.87-2.12-2.87c-1.39,0-2.23,1.1-2.23,3Z"/>
      <path class="cls-2" d="m143.87,16.69c0,2.38-1.38,4.3-3.89,4.3-2.38,0-3.81-1.81-3.81-4.27s1.42-4.3,3.91-4.3c2.3,0,3.8,1.7,3.8,4.27Zm-6.09.02c0,1.75.85,2.99,2.25,2.99s2.22-1.18,2.22-2.98-.8-2.99-2.25-2.99-2.22,1.15-2.22,2.99Z"/>
      <path class="cls-2" d="m145.65,14.68c0-.71,0-1.43-.02-2.06h1.53c.04.24.06,1.04.06,1.29.32-.67.98-1.48,2.54-1.48s2.73.97,2.73,3.12v5.25h-1.58v-5.06c0-1.17-.45-1.97-1.65-1.97-1.43,0-2.04,1.05-2.04,2.66v4.38h-1.58v-6.12Z"/>
      <path class="cls-2" d="m157.85,12.62h1.38v-2.38h1.58v2.38h1.77v1.26h-1.77v4.65c0,.76.19,1.14.92,1.14.18,0,.46,0,.67-.06v1.16c-.37.13-.88.15-1.28.15-1.33,0-1.89-.7-1.89-2.07v-4.96h-1.38v-1.26Z"/>
      <path class="cls-2" d="m165.6,9.01v4.76c.41-.68,1.13-1.35,2.51-1.35s2.75.75,2.75,3.15v5.23h-1.57v-4.97c0-1.33-.55-2.06-1.69-2.06-1.43,0-2,.97-2,2.58v4.45h-1.58v-11.78h1.58Z"/>
      <path class="cls-2" d="m174.24,17.01c0,1.54.78,2.69,2.12,2.69,1.23,0,1.62-.61,1.87-1.19h1.59c-.32,1.04-1.2,2.48-3.5,2.48-2.59,0-3.67-2.08-3.67-4.19,0-2.46,1.24-4.38,3.76-4.38,2.67,0,3.55,2.1,3.55,3.9,0,.25,0,.46-.02.68h-5.69Zm4.12-1.07c-.02-1.27-.64-2.3-1.98-2.3s-1.96.95-2.1,2.3h4.07Z"/>
    </g>
    <g>
      <path class="cls-2" d="m77.83,49c-.42,0-.85-.02-1.27,0-.37.02-.55-.14-.67-.49-.51-1.52-1.04-3.04-1.55-4.56-.23-.67-.25-.65-.97-.63-1.87.04-3.74.02-5.61.03-.41,0-.81,0-1.22,0-.32,0-.51.14-.61.44-.53,1.57-1.08,3.13-1.58,4.7-.12.36-.3.5-.65.5-.89,0-1.79.03-2.68.03-.31,0-.54-.06-.37-.5,1.39-3.65,2.78-7.31,4.14-10.97,1.16-3.12,2.28-6.25,3.43-9.37.07-.19.32-.43.49-.44,1-.06,2.01-.07,3.02-.05.15,0,.37.26.44.44.4,1.04.77,2.1,1.15,3.15,1.03,2.85,2.05,5.71,3.07,8.56,1.03,2.87,2.07,5.74,3.09,8.61.19.53.14.58-.43.55-.41-.02-.81,0-1.22,0,0,0,0,0,0-.01Zm-7.62-17.63c-.09.2-.13.28-.16.37-.96,2.67-1.91,5.34-2.87,8-.24.66-.17.77.53.77,1.64,0,3.27,0,4.91,0,.52,0,.6-.09.44-.61-.71-2.19-1.42-4.38-2.14-6.56-.21-.62-.44-1.23-.71-1.96Z"/>
      <path class="cls-2" d="m183.54,42.01c-1.63,0-3.25,0-4.88,0-.61,0-.69.12-.62.73.1.92.32,1.8,1,2.48,1.14,1.13,2.54,1.29,4.03.98,1-.21,1.88-.61,2.35-1.62.09-.18.42-.33.66-.35.69-.06,1.4-.03,2.09-.07.39-.02.54.11.48.5-.17,1.14-.81,2.02-1.67,2.72-2.63,2.17-6.93,2.22-9.63.14-1.05-.81-1.72-1.91-2.1-3.16-.69-2.3-.7-4.62.15-6.88.9-2.37,2.61-3.83,5.13-4.28,2.54-.45,4.83.02,6.69,1.91,1.1,1.12,1.6,2.54,1.79,4.07.09.75.07,1.52.12,2.28.03.43-.17.56-.58.56-1.68-.01-3.35,0-5.03,0Zm-1.52-6.32c-1.93-.01-3.52,1.28-3.94,3.19-.1.47-.02.58.48.59,2.19.03,4.39.06,6.58.08.5,0,.61-.13.55-.61-.24-1.85-1.81-3.25-3.67-3.26Z"/>
      <path class="cls-2" d="m163.32,39.43c-.36-2.29-1.38-4.19-3.5-5.33-1.51-.82-3.14-1.03-4.83-.77-2.07.31-3.79,1.22-4.86,3.06-1.6,2.76-1.64,5.66-.46,8.57.77,1.9,2.2,3.13,4.18,3.72,1.39.41,2.8.46,4.19.13,1.98-.48,3.52-1.56,4.46-3.41.65-1.28,1.01-2.63.97-4.08-.05-.63-.06-1.27-.16-1.89Zm-2.82,1.69v.04c0,3.17-1.85,5.74-4.13,5.74s-4.13-2.57-4.13-5.74,1.85-5.74,4.13-5.74,4.11,2.54,4.13,5.68h0Z"/>
      <path class="cls-2" d="m96.22,39.36c-.21-1.66-.69-3.22-1.82-4.54-1.91-2.25-4.84-2.77-7.21-1.55-.04.02-.09.05-.14.08-.02.02-.05.03-.07.04-.06.03-.11.07-.17.1-.19.12-.36.23-.52.36-.85.62-1.34,1.23-1.34,1.23v-2.3h-3.26v12.55c0,1.85,0,3.7,0,5.55h0v2.64h3.24v-7.21c.23.25.56.49.81.72,2.78,2.58,7.94,2.13,9.76-2.14.76-1.77.97-3.63.74-5.52Zm-7.34,6.82c-2.36,0-4.27-2.42-4.27-5.41s1.91-5.41,4.27-5.41,4.27,2.42,4.27,5.41-1.91,5.41-4.27,5.41Z"/>
      <path class="cls-2" d="m113.3,39.32c-.21-1.66-.69-3.22-1.82-4.54-1.91-2.25-4.84-2.77-7.21-1.55-.04.02-.09.05-.14.08-.02.02-.05.03-.07.04-.06.03-.11.07-.17.1-.19.12-.36.23-.52.36-.85.62-1.34,1.23-1.34,1.23v-2.3h-3.26v12.55c0,1.85,0,3.7,0,5.55h0v2.64h3.24v-7.21c.23.25.56.49.81.72,2.78,2.58,7.94,2.13,9.76-2.14.76-1.77.97-3.63.74-5.52Zm-7.34,6.82c-2.36,0-4.27-2.42-4.27-5.41s1.91-5.41,4.27-5.41,4.27,2.42,4.27,5.41-1.91,5.41-4.27,5.41Z"/>
      <path class="cls-2" d="m137.62,42.87c-.05,1.19-.44,2.28-1.17,3.25-.86,1.15-2.02,1.89-3.36,2.31-2.71.86-5.41.85-8.06-.3-1.86-.81-3-2.18-3.51-4.03,0,0,0,0,0-.03,0-.01,0-.03-.01-.04-.05-.22-.11-.44-.14-.67h0c-.02-.14-.04-.29-.04-.44,0-.12,0-.25,0-.39l3.13-.09s0,0,0,.02c0,0,0,.02,0,.03,0,.02,0,.04.01.06,0,.02,0,.04.02.07h0c.09.37.33,1.21.97,1.87l.04.04c.05.05.11.11.17.16.71.61,1.65.94,2.7,1.12,1.51.27,2.94.07,4.3-.67.93-.51,1.49-1.29,1.53-2.33.05-1.08-.54-1.89-1.44-2.44-1.31-.81-2.83-1.04-4.29-1.4-1.44-.35-2.88-.7-4.15-1.51-1.64-1.04-2.41-2.51-2.4-4.44,0-1.86.7-3.38,2.13-4.55,1.21-.98,2.64-1.47,4.16-1.67,1.83-.25,3.61-.03,5.3.72,1.17.52,2.09,1.24,2.72,2.17.34.48.59,1.02.77,1.61.03.1.06.2.08.3.02.09.04.18.06.27.02.06.03.13.04.19.01.05.02.1.03.14,0,.05.02.11.02.17.01.07.02.14.03.2.05.34.05.57.05.57h-3.32c-.08-.91-.38-1.53-.65-1.92-.04-.05-.08-.12-.13-.17-.17-.22-.31-.32-.34-.35,0,0,0,0,0,0-.52-.43-1.19-.7-1.96-.83-1.49-.24-3-.22-4.31.75-.68.51-1.13,1.16-1.24,2.01-.14,1.17.45,1.98,1.46,2.39,1.35.54,2.75.99,4.15,1.37,1.52.42,3.08.72,4.42,1.62,1.73,1.16,2.32,2.85,2.24,4.84Z"/>
      <path class="cls-2" d="m147.42,32.71v1.03c-.01.51-.01,1.01,0,1.51v.7h-2.89c-.03.07-.04.16-.04.28.01,2.79-.01,5.58,0,8.37.01.87.44,1.38,1.32,1.52.38.06.78.07,1.16.08.31,0,.45.13.45.43-.01.59,0,1.17,0,1.75,0,.32-.16.49-.46.54-1.1.18-2.19.16-3.29-.1-1.23-.3-1.9-1.13-2.23-2.28-.13-.48-.18-.99-.19-1.49-.02-1.41-.01-2.82-.01-4.23,0-1.51-.01-3.02.01-4.53,0-.14-.01-.25-.05-.34h-2.3v-3.24h2.09v-3.41h3.49v3.32s0,.07.01.09h2.93Z"/>
      <path class="cls-2" d="m174.1,35.92c.01.43-.12.52-.55.44-2-.41-3.7.69-4.09,2.63-.05.27-.05.55-.05.82-.01,2.84-.01,5.68-.01,8.52v.71h-3.24v-15.6h3.07v1.78c.48-.47.94-1.02,1.5-1.4.86-.59,1.88-.64,2.91-.54.35.04.46.22.45.55-.01.7-.01,1.4.01,2.09Z"/>
    </g>
  </g>
</svg>