<?xml version="1.0" encoding="UTF-8"?>
<svg id="Layer_1" data-name="Layer 1" xmlns="http://www.w3.org/2000/svg" xmlns:xlink="http://www.w3.org/1999/xlink" viewBox="0 0 205.14 62.52">
  <defs>
    <style>
      .cls-1 {
        fill: #fff;
      }

      .cls-2 {
        fill: #e9394b;
      }

      .cls-3 {
        fill: #5f656a;
      }

      .cls-4 {
        fill: #57c9e9;
      }

      .cls-5 {
        fill: #fedf00;
      }

      .cls-6 {
        fill: #68be64;
      }

      .cls-7 {
        clip-path: url(#clippath);
      }

      .cls-8 {
        fill: none;
      }
    </style>
    <clipPath id="clippath">
      <path class="cls-8" d="m15.99,13.89v34.74c0,1.36,1.48,2.21,2.66,1.53l29.64-17.28c1.17-.68,1.17-2.36,0-3.05L18.66,12.37c-1.18-.69-2.66.16-2.66,1.52Z"/>
    </clipPath>
  </defs>
  <path class="cls-1" d="m202.63,18.31v33.36c0,.39-.01.79-.01,1.18-.01,1.31-.12,2.62-.78,3.8-1.18,2.08-2.97,3.3-5.39,3.34-1.07.02-2.13.03-3.19.04H9.05c-1.98-.04-3.67-.67-4.98-2.19-1-1.14-1.53-2.49-1.54-4.01-.01-6.97-.01-13.93-.01-20.9,0-7.84.01-15.69,0-23.54,0-1.55.3-3,1.22-4.26,1.11-1.53,2.6-2.45,4.52-2.56,1.22-.07,2.45-.08,3.67-.08,61.01,0,122.02,0,183.03.01,1.01,0,2.04.05,3.01.26,2.35.51,4.48,2.96,4.58,5.36.1,2.57.04,5.15.05,7.72.01.82.04,1.65.04,2.47Z"/>
  <path class="cls-3" d="m203.74,45.21c0-12.12.03-24.25,0-36.37-.01-2.57-1.22-4.64-3.3-6.16-1.54-1.11-3.31-1.36-5.18-1.36-37.79.01-75.58.01-113.37.01H8.88c-2.93,0-5.82,1.98-6.97,4.75-.5,1.2-.53,2.46-.53,3.72.01,9.5,0,19,.01,28.49,0,5.23-.04,10.47.03,15.7.03,2.57,1.33,4.53,3.43,5.96,1.47.99,3.12,1.26,4.88,1.26,30.95-.02,61.89-.02,92.84-.02.4.01.8.01,1.2.01,30.82-.01,61.64-.01,92.46-.01.51,0,1.03-.03,1.52-.15,3.68-.84,6.08-4.08,6.01-7.64-.05-2.73-.02-5.46-.02-8.19Zm-1.08,6.47c0,.39-.01.79-.01,1.18-.01,1.31-.12,2.62-.78,3.8-1.18,2.08-2.97,3.3-5.39,3.34-1.07.02-2.13.03-3.19.04-2.89.02-5.77,0-8.65,0H55.94c-15.53,0-31.07,0-46.6.01-.09,0-.18,0-.26-.01-1.98-.04-3.67-.67-4.98-2.19-1-1.14-1.53-2.49-1.54-4.01-.01-6.97-.01-13.93-.01-20.9,0-7.84.01-15.69,0-23.54,0-1.55.3-3,1.22-4.26,1.11-1.53,2.6-2.45,4.52-2.56,1.22-.07,2.45-.08,3.67-.08,61.01,0,122.02,0,183.03.01,1.01,0,2.04.05,3.01.26,2.35.51,4.48,2.96,4.58,5.36.1,2.57.04,5.15.05,7.72.01.82.04,1.65.04,2.47v33.36Z"/>
  <g class="cls-7">
    <g>
      <path class="cls-2" d="m42.66,37.4c-1.01.57-2.03,1.13-3.04,1.7s-2.03,1.13-3.04,1.7-2.03,1.13-3.04,1.7-2.03,1.13-3.04,1.7-2.03,1.13-3.04,1.7-2.03,1.13-3.04,1.7-2.03,1.13-3.04,1.7c-.47.26-.93.52-1.4.78-.24.13-.48.26-.71.4-.21.12-.42.26-.67.28-.5.05-1.02-.15-1.46-.36-.08-.04-.58-.24-.57-.32,0,0,.02-.02.03-.03.06-.09.17-.16.24-.24l.43-.42.61-.59.76-.73.89-.86,1-.97,1.09-1.06,1.17-1.13,1.22-1.18,1.26-1.21,1.27-1.23,1.27-1.22,1.24-1.2,1.2-1.16,1.13-1.1,1.05-1.02.95-.92.83-.8.69-.66.53-.51.35-.33s.1-.09.15-.14l6.74,6.06Z"/>
      <path class="cls-5" d="m50.9,32.34s-.02.07-.03.1c-.04.09-.09.17-.15.25-.04.04-.07.09-.12.13-.09.09-.19.17-.3.23l-7.64,4.34-6.74-6.06,6.42-6.22,8.07,5.66c.09.07.19.14.26.23.14.16.24.35.29.56.05.25.04.53-.05.77Z"/>
      <path class="cls-6" d="m42.33,25.12l-6.42,6.22L15.99,12.55c.1-.21.25-.35.36-.43.01,0,.02,0,.02-.02.06-.04.1-.06.1-.06.01,0,.01-.01.02-.01.8-.5,1.81-.52,2.64-.05l23.2,13.14Z"/>
      <path class="cls-4" d="m35.91,31.34l-19.36,18.74c-.11-.08-.24-.19-.35-.34-.35-.47-.34-1-.33-1.18V13.04c.01-.19.06-.35.13-.49l19.92,18.79Z"/>
    </g>
  </g>
  <g>
    <g>
      <path class="cls-3" d="m68.91,12.38l-1.32,1.23c-.28-.48-.62-.83-1.02-1.07s-.83-.35-1.28-.35c-.72,0-1.35.27-1.88.82-.53.55-.8,1.19-.8,1.94,0,.79.27,1.46.8,2.01.53.55,1.17.82,1.92.82.41,0,.8-.1,1.17-.31.38-.21.68-.59.91-1.16h-2.18v-1.8h4.25v1.19c0,.61-.21,1.27-.63,1.97-.42.7-.97,1.22-1.66,1.54-.69.33-1.38.49-2.08.49-1.27,0-2.35-.46-3.22-1.38-.87-.92-1.31-2.06-1.31-3.42,0-1.29.45-2.38,1.35-3.3s1.98-1.37,3.25-1.37c1.62,0,2.86.71,3.73,2.13Z"/>
      <path class="cls-3" d="m70.98,10.38h5.18v1.82h-3.2v1.86h3.2v1.8h-3.2v1.91h3.2v1.82h-5.18v-9.21Z"/>
      <path class="cls-3" d="m77.22,10.38h6.19v1.96h-2.11v7.25h-1.99v-7.25h-2.1v-1.96Z"/>
      <path class="cls-3" d="m88.45,10.38h1.98v9.21h-1.98v-9.21Z"/>
      <path class="cls-3" d="m91.65,10.38h6.19v1.96h-2.11v7.25h-1.98v-7.25h-2.1v-1.96Z"/>
      <path class="cls-3" d="m102.68,14.98c0-1.36.45-2.48,1.35-3.37.9-.89,1.97-1.33,3.2-1.33,1.37,0,2.49.45,3.39,1.34.89.89,1.34,2.02,1.34,3.38s-.44,2.47-1.33,3.37c-.88.89-2,1.34-3.34,1.34s-2.45-.44-3.31-1.33c-.87-.89-1.3-2.02-1.3-3.39Zm4.64-2.86c-.77-.01-1.39.25-1.87.8-.47.55-.71,1.25-.71,2.12,0,.82.24,1.5.72,2.03.48.54,1.09.81,1.82.81.77,0,1.39-.27,1.87-.8.47-.53.71-1.23.71-2.1s-.23-1.54-.7-2.06c-.46-.52-1.08-.79-1.85-.8Z"/>
      <path class="cls-3" d="m119.7,10.38h1.94v9.21h-1.93l-4.21-5.96v5.96h-1.98v-9.21h1.96l4.22,5.92v-5.92Z"/>
    </g>
    <g>
      <path class="cls-3" d="m125.95,46.31s-.03,0-.04,0c-.39,0-.78,0-1.17,0h1.21Z"/>
      <path class="cls-3" d="m110.28,49.56s-.05-.07-.08-.12c.03.04.05.08.08.12Z"/>
      <g>
        <path class="cls-3" d="m176.24,44.35c-.01-1.77,0-3.53-.01-5.3-.02-2.07-1.3-3.79-3.3-4.39-.67-.2-1.38-.32-2.08-.38-2.06-.19-3.63.67-4.8,2.32-.03.04-.05.08-.07.11l2.33,1.03s.09-.08.14-.14c1.08-1.27,3.71-1.34,4.85.34.28.41.43.86.37,1.4-.09-.03-.13-.03-.17-.05-2.1-1.03-4.17-.91-6.16.26-1.52.89-2.17,2.5-1.73,4.07.42,1.48,1.44,2.42,2.9,2.82,1.91.52,3.64.28,4.92-1.43.03-.05.1-.07.24-.17v1.48c.84,0,1.6,0,2.36,0,.24,0,.27-.13.26-.32-.02-.55-.06-1.1-.06-1.65Zm-2.69-2.35s0,.02,0,.02c-.21,1.5-2.26,2.6-4.01,2.18-.65-.15-1.22-.48-1.37-1.18-.16-.72.2-1.28.76-1.72.67-.52,1.45-.65,2.28-.63,2.17.17,2.36,1.18,2.35,1.32Z"/>
        <path class="cls-3" d="m87.41,46.83c-3.17.03-5.89-2.5-6.14-5.65-.18-2.26.44-4.19,2.21-5.65,1.81-1.49,3.89-1.87,6.09-1.04,2.24.85,3.58,2.5,3.95,4.87.36,2.3-.24,4.32-2.01,5.92-1.16,1.04-2.54,1.55-4.11,1.55Zm3.61-6.45c-.02-.26-.02-.62-.08-.97-.26-1.49-1.72-2.68-3.16-2.78-1.85-.13-3.53.97-3.85,2.77-.08.46-.08.93-.08,1.4.01,2.38,2.26,4.05,4.57,3.4,1.67-.47,2.61-1.81,2.61-3.83Z"/>
        <path class="cls-3" d="m95.28,40.48c-.04-3.26,2.73-6.09,6.02-6.13,3.43-.05,6.29,2.71,6.33,6.1.03,3.3-2.73,6.08-6.1,6.13-3.43.05-6.2-2.65-6.24-6.1Zm9.75-.1c-.02-.24-.01-.59-.07-.93-.27-1.58-1.76-2.71-3.17-2.81-1.72-.12-3.4.87-3.8,2.54-.13.53-.13,1.09-.12,1.64,0,2.37,2.27,4.05,4.57,3.39,1.68-.48,2.63-1.84,2.6-3.84Z"/>
        <path class="cls-3" d="m77.79,43.43c-1.35,1.72-3.16,2.75-5.3,3.09-2.8.44-5.47,0-7.8-1.72-2.92-2.16-4.41-5.08-4.06-8.71.43-4.4,3.83-7.78,7.98-8.55.88-.16,1.73-.22,2.56-.17l-.02-.02c3.39.09,5.83,2.44,5.98,2.59h0s-1.72,1.67-1.72,1.67l-.1.09-.26-.19-.03-.03c-.23-.19-.46-.36-.7-.52h0c-.81-.54-1.71-.89-2.7-1.03-4.49-.63-7.7,2.41-8.24,5.88-.5,3.2,1.05,6.23,3.99,7.57,2.52,1.14,6.22.94,8.24-1.39.74-.85,1.16-1.83,1.33-2.93.05-.34-.12-.39-.41-.39-1.78.01-3.56.02-5.34.02h-.74c0-.79,0-1.52,0-2.25,0-.29.22-.28.41-.28.64,0,1.28.03,1.92.03,2.08.01,4.17.02,6.26.01.36,0,.5.12.53.45.19,2.46-.22,4.76-1.79,6.75Z"/>
        <path class="cls-3" d="m118.74,34.57v1.07c-.18-.15-2.06-1.7-4.33-1.31h0c-2.82.35-5.29,2.93-5.4,5.75-.11,2.84,1.51,5.28,4.18,6.22,1.84.65,3.58.51,5.09-.86.09-.08.19-.14.31-.22.05.09.09.14.09.19,0,.41.03.83,0,1.24-.16,2.56-1.95,3.6-4.19,3.17-.22-.04-.43-.11-.63-.19h0c-.07-.03-.14-.06-.2-.09-.25-.13-.48-.3-.7-.5-.02-.02-.04-.04-.07-.06-.26-.25-.47-.56-.66-.9-.08-.14-.13-.31-.31-.28h0s-.98.43-.98.43l-.67.3c-.07.03-.13.06-.2.09-.1.05-.16.09-.19.15,0,0,0,.01,0,.02,0,.08.09.26.19.43.04.05.07.1.1.15.01.02.02.04.04.06.03.04.05.08.08.12.01.02.02.03.02.03.09.14.19.28.3.41,1.5,1.8,3.42,2.51,5.74,2.2,2.38-.32,3.93-1.63,4.61-3.9.22-.73.34-1.52.35-2.28.03-3.17.02-6.34.02-9.51v-1.94h-2.57Zm-2.49,9.66c-1.93.48-4.07-1.02-4.29-2.98-.15-1.29.05-2.48,1-3.45.99-1,2.17-1.34,3.54-.92,1.37.42,2.15,1.36,2.36,2.76.05.34.07.68.11,1.02-.03,1.82-1.04,3.16-2.71,3.57Z"/>
        <rect class="cls-3" x="123.51" y="28.02" width="2.69" height="18.29"/>
        <path class="cls-3" d="m131.47,42.14c2.5-1.02,5-2.05,7.5-3.06.32-.13.44-.27.28-.61-.18-.37-.31-.77-.51-1.13-1.64-3.09-5.66-3.99-8.47-1.92-2.03,1.5-2.86,4.16-2.11,6.79.83,2.93,3.56,4.76,6.63,4.41,1.83-.21,3.29-1.09,4.44-2.64l-1.99-1.24c-.4.51-.91.86-1.23,1.05-.1.06-.18.11-.24.13-.05.02-.07.04-.07.04-1.5.73-3.42.41-4.44-1.1-.31-.46-.31-.53.21-.73Zm-.74-1.86c-.05.02-.11.01-.22.02-.11-1.17.36-2.05,1.18-2.76.88-.76,1.9-1.06,3.05-.82.62.13,1.06.52,1.4,1.03.05.07-.03.34-.11.37-1.76.73-3.54,1.44-5.3,2.16Z"/>
        <path class="cls-3" d="m159.37,32.61c-.52-2.54-2.78-4.49-5.38-4.56-2.31-.06-4.62-.03-6.92-.04-.05,0-.1.03-.16.05v18.26h2.66v-3.16c0-.89-.01-1.79-.02-2.69,0-.27,0-.54,0-.8,0-.26.1-.33.35-.33.39.01.78.02,1.17,0,1.26-.05,2.54.01,3.78-.18,3.03-.46,5.15-3.59,4.54-6.56Zm-5.5,4.22c-.62.02-1.24,0-1.86,0h0s-2.32,0-2.32,0c-.1-.04-.14-.14-.14-.32.02-1.81.02-3.61.04-5.42,0-.58.02-.59.63-.58,1.3.01,2.61-.02,3.91.07,1.44.11,2.71,1.72,2.65,3.18-.07,1.67-1.33,3-2.91,3.06Z"/>
        <path class="cls-3" d="m149.57,43.16c0-.89-.01-1.79-.02-2.69"/>
        <path class="cls-3" d="m163.87,28v18.28h-2.7v-.54c0-5.28,0-10.54-.01-15.81v-1.93h2.71Z"/>
        <path class="cls-3" d="m189.15,34.6c-.15.39-.25.67-.37.95-1.72,3.91-3.45,7.82-5.14,11.74l-1.99,4.6h-1.84s-.87-.01-.87-.01l1.86-4.21.79-1.78.08-.17-.07-.17-.75-1.75-.02-.04c-1.32-2.95-2.63-5.9-3.94-8.84-.03-.08-.05-.16-.09-.29.14,0,.25-.03.37-.03.67-.01,1.34.01,2-.01.31,0,.46.1.58.4,1,2.45,2.02,4.89,3.03,7.34.05.11.11.22.21.43.14-.3.26-.52.36-.76.93-2.35,1.85-4.72,2.79-7.07.06-.14.24-.31.37-.32.84-.02,1.68-.01,2.64-.01Z"/>
      </g>
    </g>
  </g>
</svg>